<?xml version="1.0"?>
<svg version="1.1" xmlns="http://www.w3.org/2000/svg" width="400" height="300" style=""><path fill="#fa840f" d="M40.3,144.75l-16.7,35.25l-7.6,0l16.65-35.25l7.65,0z M69.5755,144.75l-16.7,35.25l-7.6,0l16.65-35.25l7.65,0z"/><path fill="#fa840f" d="M89.651,174.25l0-23.5l-4.75,0l-1.25,4.75l-4.6,0l0-10.75l29,0l0,10.75l-4.65,0l-1.25-4.75l-4.75,0l0,23.5l4.75,1.5l0,4.25l-17.25,0l0-4.25z M120.2265,169.15l0.75,4.2s2,1.05,4.9,1.05c3.2,0,6.05-1.4,6.05-4.05c0-5.85-16.9-3.25-16.9-15.6c0-6.9,5.45-10.6,12.7-10.6c5.65,0,11,2,11,2l-0.25,9.1l-4.6,0l-1.25-4.25s-2.25-0.75-4.4-0.75c-3.55,0-5.3,1.55-5.3,3.55c0,5.8,16.85,3.5,16.85,15.25c0,7.5-5.8,11.6-13.5,11.6c-5.65,0-11.15-1.9-11.15-1.9l0-9.6l5.1,0z M148.002,180l0-4.25l3.75-1.5l0-23.5l-3.75-1.5l0-4.25l11.5-0.25l14,0l0,9.5l-4.65,0l-1.25-3.5l-8.1,0l0,8.75l10.35,0l0,5.5l-10.35,0l0,9.25l4.6,1.5l0,4.25l-16.1,0z M179.9775,180l0-4.25l3.75-1.5l0-23.5l-3.75-1.5l0-4.25l12.9-0.25l7.5,16.65l7.85-16.4l12-0.25l0,4.5l-3.6,1.5l0,23.5l3.75,1.5l0,4.25l-14.9,0l0-4.25l3.9-1.5l0-18.8l-1.35,3.3l-5.65,11.75l-5.4,0.25l-5.75-11.85l-0.85-2.6l0,17.95l3.85,1.5l0,4.25l-14.25,0z"/></svg>
