<?xml version="1.0"?>
<svg version="1.1" xmlns="http://www.w3.org/2000/svg" width="800" height="500" style=""><path fill="#fa840f" d="M29.168,247.06l-9.352,19.74l-4.256,0l9.324-19.74l4.284,0z M45.56228,247.06l-9.352,19.74l-4.256,0l9.324-19.74l4.284,0z"/><path fill="#fa840f" d="M59.00456,263.58l0-13.16l-2.66,0l-0.7,2.66l-2.576,0l0-6.02l16.24,0l0,6.02l-2.604,0l-0.7-2.66l-2.66,0l0,13.16l2.66,0.84l0,2.38l-9.66,0l0-2.38z M76.12684,260.724l0.42,2.352s1.12,0.588,2.744,0.588c1.792,0,3.388-0.784,3.388-2.268c0-3.276-9.464-1.82-9.464-8.736c0-3.864,3.052-5.936,7.112-5.936c3.164,0,6.16,1.12,6.16,1.12l-0.14,5.096l-2.576,0l-0.7-2.38s-1.26-0.42-2.464-0.42c-1.988,0-2.968,0.868-2.968,1.988c0,3.248,9.436,1.96,9.436,8.54c0,4.2-3.248,6.496-7.56,6.496c-3.164,0-6.244-1.064-6.244-1.064l0-5.376l2.856,0z M91.68112,266.8l0-2.38l2.1-0.84l0-13.16l-2.1-0.84l0-2.38l6.44-0.14l7.84,0l0,5.32l-2.604,0l-0.7-1.96l-4.536,0l0,4.9l5.796,0l0,3.08l-5.796,0l0,5.18l2.576,0.84l0,2.38l-9.016,0z M109.5874,266.8l0-2.38l2.1-0.84l0-13.16l-2.1-0.84l0-2.38l7.224-0.14l4.2,9.324l4.396-9.184l6.72-0.14l0,2.52l-2.016,0.84l0,13.16l2.1,0.84l0,2.38l-8.344,0l0-2.38l2.184-0.84l0-10.528l-0.756,1.848l-3.164,6.58l-3.024,0.14l-3.22-6.636l-0.476-1.456l0,10.052l2.156,0.84l0,2.38l-7.98,0z"/></svg>
