<?xml version="1.0"?>
<svg version="1.1" xmlns="http://www.w3.org/2000/svg" width="600" height="400" style=""><path fill="#fa840f" d="M65.6,189.5l-33.4,70.5l-15.2,0l33.3-70.5l15.3,0z M124.151,189.5l-33.4,70.5l-15.2,0l33.3-70.5l15.3,0z"/><path fill="#fa840f" d="M159.302,248.5l0-47l-9.5,0l-2.5,9.5l-9.2,0l0-21.5l58,0l0,21.5l-9.3,0l-2.5-9.5l-9.5,0l0,47l9.5,3l0,8.5l-34.5,0l0-8.5z M220.453,238.3l1.5,8.4s4,2.1,9.8,2.1c6.4,0,12.1-2.8,12.1-8.1c0-11.7-33.8-6.5-33.8-31.2c0-13.8,10.9-21.2,25.4-21.2c11.3,0,22,4,22,4l-0.5,18.2l-9.2,0l-2.5-8.5s-4.5-1.5-8.8-1.5c-7.1,0-10.6,3.1-10.6,7.1c0,11.6,33.7,7,33.7,30.5c0,15-11.6,23.2-27,23.2c-11.3,0-22.3-3.8-22.3-3.8l0-19.2l10.2,0z M276.004,260l0-8.5l7.5-3l0-47l-7.5-3l0-8.5l23-0.5l28,0l0,19l-9.3,0l-2.5-7l-16.2,0l0,17.5l20.7,0l0,11l-20.7,0l0,18.5l9.2,3l0,8.5l-32.2,0z M339.955,260l0-8.5l7.5-3l0-47l-7.5-3l0-8.5l25.8-0.5l15,33.3l15.7-32.8l24-0.5l0,9l-7.2,3l0,47l7.5,3l0,8.5l-29.8,0l0-8.5l7.8-3l0-37.6l-2.7,6.6l-11.3,23.5l-10.8,0.5l-11.5-23.7l-1.7-5.2l0,35.9l7.7,3l0,8.5l-28.5,0z"/></svg>
